# xmcd CD database file
#
# Track frame offsets:
#	150
#	19071
#	29788
#	44525
#	57018
#	73569
#	89833
#	103865
#	117273
#	132765
#	142170
#	155027
#	168487
#	184066
#	197086
#
# Disc length: 2905 seconds
#
# Revision: 1
# Processed by: cddbd v1.5.2PL0 Copyright (c) Steve Scherf et al.
# Submitted via: CDex 1.70beta2
#
DISCID=e30b570f
DTITLE=Samba Dibanda - Filho do Mar
DYEAR=2008
DGENRE=Samba
TTITLE0=O Homem Falou
TTITLE1=Cabide
TTITLE2=Filho do Mar
TTITLE3=Be Happy
TTITLE4=Cara Valente
TTITLE5=Esnobe
TTITLE6=Eu Vou Pro Samba Dibanda
TTITLE7=Ilha de Maré
TTITLE8=Alô Fevereiro
TTITLE9=Cotidiano
TTITLE10=Falsa Baiana
TTITLE11=Madalena
TTITLE12=Saudade da Bahia
TTITLE13=Tiro ao Álvaro
TTITLE14=Não deixe o Samba Morrer
EXTD=YEAR: 2008
EXTT0=
EXTT1=
EXTT2=
EXTT3=
EXTT4=
EXTT5=
EXTT6=
EXTT7=
EXTT8=
EXTT9=
EXTT10=
EXTT11=
EXTT12=
EXTT13=
EXTT14=
PLAYORDER=
